<svg xmlns="http://www.w3.org/2000/svg" viewBox="13283.896 -7577.289 40.579 40">
	<defs>
		<style>/* <![CDATA[ */
        .a {
            fill: none;
        }

        .b {
            fill: #c7c4c4;
        }
         /* ]]> */
		</style>
	</defs>
	<g transform="translate(13222.896 -7631.507)">
		<path class="a"
			  d="M84.288,151.613a1.265,1.265,0,0,1,.161.207l10.9,10.9V159.2l-10.9-10.9C82.908,150.232,83.943,151.268,84.288,151.613Z"
			  transform="translate(-17.422 -72.439)"/>
		<path class="a"
			  d="M73.614,86.713,85.554,74.774V71.3L72.6,84.251a4.815,4.815,0,0,0-1.7,3.129,3.6,3.6,0,0,0,.851,2.162A7.532,7.532,0,0,1,73.614,86.713Z"
			  transform="translate(-7.623 -13.152)"/>
		<path class="a"
			  d="M163.7,149.942l12.951-12.951a4.815,4.815,0,0,0,1.7-3.129,3.6,3.6,0,0,0-.851-2.162,7.532,7.532,0,0,1-1.863,2.83L163.7,146.492v3.451Z"
			  transform="translate(-79.075 -59.658)"/>
		<path class="a"
			  d="M174.865,82.411a1.268,1.268,0,0,1-.161-.207L163.8,71.3v3.52l10.9,10.9C176.245,83.791,175.21,82.756,174.865,82.411Z"
			  transform="translate(-79.152 -13.152)"/>
		<path class="b"
			  d="M78.276,93.873a1.079,1.079,0,0,0,.805.345.657.657,0,0,0,.437-.138,1.147,1.147,0,0,0,.713-1.058V86.259a1.172,1.172,0,0,0-.345-.805l-11.3-11.3,11.3-11.3a1.079,1.079,0,0,0,.345-.805V55.364a1.184,1.184,0,0,0-.713-1.058,1.138,1.138,0,0,0-1.242.253L63.369,69.466A6.847,6.847,0,0,0,61,74.2,6.607,6.607,0,0,0,63.3,78.9Zm-.345-7.108v3.52l-10.9-10.9a1.264,1.264,0,0,0-.161-.207c-.345-.345-1.38-1.38.161-3.313ZM64.98,71.1,77.931,58.148v3.474L65.992,73.56a7.532,7.532,0,0,0-1.863,2.83,3.6,3.6,0,0,1-.851-2.162A4.815,4.815,0,0,1,64.98,71.1Z"
			  transform="translate(0)"/>
		<path class="b"
			  d="M165.44,74.351l-11.3,11.3a1.079,1.079,0,0,0-.345.805v6.694a1.147,1.147,0,0,0,.713,1.058,1,1,0,0,0,.437.092,1.191,1.191,0,0,0,.805-.322l14.907-14.907a6.847,6.847,0,0,0,2.369-4.739,6.607,6.607,0,0,0-2.3-4.693L155.755,54.659a1.13,1.13,0,0,0-1.242-.253,1.147,1.147,0,0,0-.713,1.058V62.25a1.172,1.172,0,0,0,.345.805Zm4.44-2.231a3.6,3.6,0,0,1,.851,2.162,4.816,4.816,0,0,1-1.7,3.129L156.077,90.361V86.911l11.939-11.962A7.532,7.532,0,0,0,169.88,72.119ZM156.1,58.225l10.9,10.9a1.264,1.264,0,0,0,.161.207c.345.345,1.38,1.38-.161,3.313l-10.9-10.9v-3.52Z"
			  transform="translate(-71.452 -0.077)"/>
		<path class="b"
			  d="M107.9,138.074v.092a.874.874,0,0,0,.874.874h17.092a.874.874,0,0,0,.874-.874v-.092a.874.874,0,0,0-.874-.874H108.774A.874.874,0,0,0,107.9,138.074Z"
			  transform="translate(-36.111 -63.893)"/>
		<path class="b"
			  d="M122.2,123.574v.092a.874.874,0,0,0,.874.874h10.49a.874.874,0,0,0,.874-.874v-.092a.874.874,0,0,0-.874-.874h-10.49A.874.874,0,0,0,122.2,123.574Z"
			  transform="translate(-47.121 -52.728)"/>
		<path class="b"
			  d="M140.638,109.94a.874.874,0,0,0,.874-.874v-.092a.874.874,0,0,0-.874-.874h-4.164a.874.874,0,0,0-.874.874v.092a.874.874,0,0,0,.874.874Z"
			  transform="translate(-57.439 -41.487)"/>
		<path class="b"
			  d="M136.474,168.44h4.164a.874.874,0,0,0,.874-.874v-.092a.874.874,0,0,0-.874-.874h-4.164a.874.874,0,0,0-.874.874v.092A.874.874,0,0,0,136.474,168.44Z"
			  transform="translate(-57.439 -86.529)"/>
		<path class="b"
			  d="M123.074,153.74h10.49a.874.874,0,0,0,.874-.874v-.092a.874.874,0,0,0-.874-.874h-10.49a.874.874,0,0,0-.874.874v.092A.874.874,0,0,0,123.074,153.74Z"
			  transform="translate(-47.121 -75.211)"/>
	</g>
</svg>
